<svg xmlns="http://www.w3.org/2000/svg" viewBox="0 0 820 240" role="img" aria-labelledby="title desc">
  <title id="title">AAPM Francisco Matarazzo</title>
  <desc id="desc">Logo da AAPM Francisco Matarazzo com símbolo de comunidade e livro</desc>
  <defs>
    <linearGradient id="blue" x1="0" y1="0" x2="1" y2="1">
      <stop offset="0" stop-color="#123f92"/>
      <stop offset="1" stop-color="#006dff"/>
    </linearGradient>
    <linearGradient id="orange" x1="0" y1="0" x2="1" y2="1">
      <stop offset="0" stop-color="#ff9b2f"/>
      <stop offset="1" stop-color="#ff6b00"/>
    </linearGradient>
    <linearGradient id="gold" x1="0" y1="0" x2="1" y2="1">
      <stop offset="0" stop-color="#f4bd53"/>
      <stop offset="1" stop-color="#d89a27"/>
    </linearGradient>
    <filter id="softShadow" x="-20%" y="-20%" width="140%" height="140%">
      <feDropShadow dx="0" dy="5" stdDeviation="5" flood-color="#1e2430" flood-opacity="0.28"/>
    </filter>
  </defs>
  <g filter="url(#softShadow)">
    <circle cx="84" cy="58" r="34" fill="url(#blue)"/>
    <path d="M43 103c22-19 58-20 85-2 18 12 30 30 37 51l-33 15c-9-26-24-39-47-39-26 0-45 18-48 48l-33-17c4-23 16-42 39-56Z" fill="url(#blue)"/>
    <circle cx="190" cy="65" r="34" fill="url(#orange)"/>
    <path d="M144 102c28-22 70-15 92 17 12 18 15 38 10 58l-34-12c6-28-9-51-35-54-16-2-31 3-44 14l-25-19c10-4 22-5 36-4Z" fill="url(#orange)"/>
    <circle cx="137" cy="94" r="27" fill="url(#gold)"/>
    <path d="M86 164c33 4 58 17 70 38v-58c-25-14-49-21-82-19l12 39Z" fill="url(#blue)"/>
    <path d="M190 164c-33 4-58 17-70 38v-58c25-14 49-21 82-19l-12 39Z" fill="url(#blue)"/>
    <path d="M93 132c18-27 68-27 86 0-22 5-40 17-43 37-5-20-22-32-43-37Z" fill="url(#gold)"/>
  </g>
  <g filter="url(#softShadow)">
    <text x="330" y="132" font-family="Montserrat, Arial, sans-serif" font-size="92" font-weight="800" letter-spacing="0">
      <tspan fill="#ff7b00">AA</tspan><tspan fill="#2454ad">PM</tspan>
    </text>
  </g>
  <text x="335" y="190" font-family="Montserrat, Arial, sans-serif" font-size="39" font-weight="500" fill="#2454ad">Francisco Matarazzo</text>
</svg>
